<?xml version="1.0" standalone="no"?>
<!DOCTYPE svg PUBLIC "-//W3C//DTD SVG 20010904//EN"
 "http://www.w3.org/TR/2001/REC-SVG-20010904/DTD/svg10.dtd">
<svg version="1.0" xmlns="http://www.w3.org/2000/svg"
 width="700.000000pt" height="700.000000pt" viewBox="0 0 700.000000 700.000000"
 preserveAspectRatio="xMidYMid meet">
<metadata>
Created by potrace 1.11, written by Peter Selinger 2001-2013
</metadata>
<g transform="translate(0.000000,700.000000) scale(0.100000,-0.100000)"
fill="#000000" stroke="none">
<path d="M3322 6928 c-231 -40 -373 -284 -292 -500 28 -75 78 -138 142 -180
86 -56 128 -65 320 -67 95 -1 175 -4 177 -7 8 -8 8 -248 -1 -265 -5 -11 -27
-19 -70 -23 -171 -19 -462 -103 -703 -204 -77 -32 -301 -149 -390 -204 -240
-149 -306 -230 -321 -393 -9 -94 31 -207 100 -284 28 -32 113 -86 151 -96 17
-4 37 -10 45 -12 39 -10 126 -9 169 2 60 15 73 22 206 111 237 156 491 261
770 319 156 32 245 40 440 40 189 0 303 -11 435 -41 36 -9 74 -17 85 -20 29
-5 170 -49 240 -74 33 -12 119 -50 190 -85 657 -321 1099 -937 1200 -1675 15
-113 22 -383 11 -452 -3 -18 -8 -55 -11 -83 -19 -197 -91 -451 -181 -643 -19
-41 -34 -75 -34 -77 0 -9 -103 -180 -147 -246 -194 -286 -472 -533 -779 -695
-185 -97 -436 -187 -581 -209 -12 -2 -34 -6 -50 -9 -106 -23 -200 -31 -378
-31 -145 0 -212 4 -345 21 -80 10 -313 71 -415 109 -120 45 -240 102 -354 168
-123 72 -180 90 -272 85 -229 -13 -388 -214 -347 -441 13 -68 42 -127 89 -181
60 -68 287 -200 484 -281 108 -44 134 -55 160 -66 109 -45 430 -126 572 -144
26 -4 59 -8 73 -11 51 -8 228 -18 345 -18 113 0 344 12 355 19 3 2 28 5 56 8
121 13 352 69 514 124 182 62 481 200 571 263 15 11 30 20 33 20 19 0 288 198
386 285 354 313 617 683 800 1125 58 141 144 446 165 585 3 22 10 67 15 100
25 160 34 494 17 668 -50 529 -244 1034 -572 1482 -14 19 -5 30 164 199 221
223 254 278 253 424 -3 271 -292 445 -541 326 -43 -20 -99 -70 -236 -205 -100
-99 -185 -179 -191 -179 -6 0 -22 10 -35 21 -56 49 -294 199 -414 261 -291
149 -642 264 -900 294 -27 4 -54 10 -60 14 -10 8 -14 265 -4 274 2 2 85 6 184
8 180 3 180 3 250 36 257 121 305 436 96 624 -30 27 -76 55 -113 69 l-63 24
-710 0 c-390 1 -729 -2 -753 -7z"/>
<path d="M634 4512 c-71 -21 -147 -101 -172 -183 -48 -154 11 -312 142 -382
l41 -22 825 0 825 0 46 22 c53 25 114 89 140 147 52 120 15 288 -81 370 -75
63 -27 59 -912 61 -654 1 -816 -2 -854 -13z"/>
<path d="M5015 4271 c-31 -14 -462 -350 -521 -406 -6 -5 -26 -21 -44 -35 -18
-14 -97 -77 -177 -140 l-144 -116 -68 2 c-261 10 -497 -158 -577 -411 -53
-166 -27 -352 68 -495 241 -362 771 -353 994 17 51 85 76 172 83 292 5 78 11
111 23 126 10 11 30 36 45 56 16 20 45 56 65 80 229 279 545 684 561 719 54
118 -6 263 -129 315 -49 20 -130 19 -179 -4z"/>
<path d="M255 3643 c-131 -32 -224 -146 -230 -281 -6 -126 54 -226 170 -283
l64 -31 1203 0 c863 0 1215 3 1245 11 102 28 192 123 213 227 28 135 -42 274
-169 336 l-46 23 -1215 1 c-668 1 -1224 -1 -1235 -3z"/>
<path d="M678 2769 c-146 -21 -242 -155 -232 -323 6 -104 73 -208 161 -252 36
-18 76 -19 868 -19 927 0 859 -5 938 71 147 143 112 409 -67 498 l-59 30 -782
0 c-430 1 -802 -2 -827 -5z"/>
<path d="M650 1890 c-200 -56 -273 -335 -131 -500 21 -25 60 -56 87 -70 l49
-24 820 0 820 0 50 26 c97 51 152 140 158 254 8 144 -68 267 -189 309 -29 10
-218 12 -838 12 -441 0 -812 -3 -826 -7z"/>
</g>
</svg>
