<?xml version="1.0" encoding="UTF-8" standalone="no"?>
<svg
   xmlns:dc="http://purl.org/dc/elements/1.1/"
   xmlns:cc="http://creativecommons.org/ns#"
   xmlns:rdf="http://www.w3.org/1999/02/22-rdf-syntax-ns#"
   xmlns:svg="http://www.w3.org/2000/svg"
   xmlns="http://www.w3.org/2000/svg"
   xmlns:sodipodi="http://sodipodi.sourceforge.net/DTD/sodipodi-0.dtd"
   xmlns:inkscape="http://www.inkscape.org/namespaces/inkscape"
   data-name="Layer 1"
   viewBox="0 0 96 96"
   x="0px"
   y="0px"
   version="1.1"
   id="svg70"
   sodipodi:docname="logo.svg"
   inkscape:version="1.0.2 (e86c8708, 2021-01-15)"
   width="96"
   height="96">
  <metadata
     id="metadata76">
    <rdf:RDF>
      <cc:Work
         rdf:about="">
        <dc:format>image/svg+xml</dc:format>
        <dc:type
           rdf:resource="http://purl.org/dc/dcmitype/StillImage" />
        <dc:title>Artboard 15</dc:title>
      </cc:Work>
    </rdf:RDF>
  </metadata>
  <defs
     id="defs74" />
  <sodipodi:namedview
     pagecolor="#ffffff"
     bordercolor="#666666"
     borderopacity="1"
     objecttolerance="10"
     gridtolerance="10"
     guidetolerance="10"
     inkscape:pageopacity="0"
     inkscape:pageshadow="2"
     inkscape:window-width="1920"
     inkscape:window-height="1109"
     id="namedview72"
     showgrid="false"
     inkscape:snap-page="false"
     inkscape:zoom="5.88"
     inkscape:cx="53.156882"
     inkscape:cy="47.300926"
     inkscape:window-x="0"
     inkscape:window-y="23"
     inkscape:window-maximized="1"
     inkscape:current-layer="svg70" />
  <title
     id="title62">Artboard 15</title>
  <g
     id="g1076"
     transform="translate(0.28821523,0.87319851)"
     style="mix-blend-mode:normal">
    <path
       d="M 30.444217,33.070779 H 9.4257833 a 3.6411969,4.13 0 1 0 0,8.26 H 30.444217 a 3.6411969,4.13 0 1 0 0,-8.26 z"
       id="path106"
       style="fill:#ab0730;fill-opacity:1;stroke-width:0.93896" />
    <path
       d="m 35.74,53.340137 a 4.13,4.13 0 1 0 0,-8.26 H 4.13 a 4.13,4.13 0 1 0 0,8.26 z"
       id="path104"
       style="fill:#7d8f29;fill-opacity:1" />
    <path
       d="m 91.509351,25.450816 a 5.46,5.46 0 0 0 1.62,-3.13 5.19,5.19 0 0 0 -5.81,-5.81 5.45,5.45 0 0 0 -3.13,1.62 l -4.28,4.28 a 40,40 0 0 0 -19.49,-8.16 v -3.89 h 3.73 a 5.34,5.34 0 0 0 5.39,-4.6599997 5.19,5.19 0 0 0 -5.12,-5.69999998279 h -18.09 a 5.34,5.34 0 0 0 -5.39,4.65999998279 5.19,5.19 0 0 0 5.16,5.6999997 h 4 v 3.88 a 40.27,40.27 0 0 0 -18.53,7.46 5.17,5.17 0 0 0 6.11,8.33 29.83,29.83 0 1 1 1.84,49.3 5.17,5.17 0 0 0 -6.72,1 v 0 a 5.17,5.17 0 0 0 1.15,7.68 39.85,39.85 0 0 0 27.47,5.78 40.3,40.3 0 0 0 34,-39.24 39.72,39.72 0 0 0 -8.22,-24.78 z"
       id="path102"
       style="fill:#fdca44;fill-opacity:1" />
    <path
       d="m 72.299351,41.590816 -9.14,11.41 a 8.07,8.07 0 1 1 -6.84,-6.87 l 11.41,-9.14 a 3.25,3.25 0 0 1 4.57,4.57 z"
       id="path64"
       style="fill:#fdca44;fill-opacity:1" />
    <path
       d="M 30.444217,69.098852 H 9.4257833 a 3.6411969,4.13 0 1 0 0,8.26 H 30.444217 a 3.6411969,4.13 0 1 0 0,-8.26 z"
       id="path106-8"
       style="fill:#cccccc;fill-opacity:1;stroke-width:0.93896" />
    <path
       d="M 30.444217,57.089493 H 9.4257833 a 3.6411969,4.13 0 1 0 0,8.26 H 30.444217 a 3.6411969,4.13 0 1 0 0,-8.26 z"
       id="path106-6"
       style="fill:#cccccc;fill-opacity:1;stroke-width:0.93896" />
  </g>
</svg>
